<?xml version="1.0" encoding="UTF-8" standalone="no"?>
<!-- Created with Inkscape (http://www.inkscape.org/) -->

<svg
   xmlns:dc="http://purl.org/dc/elements/1.1/"
   xmlns:cc="http://creativecommons.org/ns#"
   xmlns:rdf="http://www.w3.org/1999/02/22-rdf-syntax-ns#"
   xmlns:svg="http://www.w3.org/2000/svg"
   xmlns="http://www.w3.org/2000/svg"
   xmlns:sodipodi="http://sodipodi.sourceforge.net/DTD/sodipodi-0.dtd"
   xmlns:inkscape="http://www.inkscape.org/namespaces/inkscape"
   width="756.36981"
   height="756.36981"
   id="svg2"
   version="1.1"
   inkscape:version="0.92.4 (5da689c313, 2019-01-14)"
   sodipodi:docname="clover-symbol-black.svg">
  <defs
     id="defs4">
    <inkscape:perspective
       sodipodi:type="inkscape:persp3d"
       inkscape:vp_x="0 : 526.18109 : 1"
       inkscape:vp_y="0 : 1000 : 0"
       inkscape:vp_z="744.09448 : 526.18109 : 1"
       inkscape:persp3d-origin="372.04724 : 350.78739 : 1"
       id="perspective10" />
  </defs>
  <sodipodi:namedview
     id="base"
     pagecolor="#ffffff"
     bordercolor="#666666"
     borderopacity="1.0"
     inkscape:pageopacity="0.0"
     inkscape:pageshadow="2"
     inkscape:zoom="0.47417135"
     inkscape:cx="996.46099"
     inkscape:cy="408.60757"
     inkscape:document-units="px"
     inkscape:current-layer="layer1"
     showgrid="false"
     inkscape:window-width="1920"
     inkscape:window-height="1001"
     inkscape:window-x="-9"
     inkscape:window-y="-9"
     inkscape:window-maximized="1" />
  <metadata
     id="metadata7">
    <rdf:RDF>
      <cc:Work
         rdf:about="">
        <dc:format>image/svg+xml</dc:format>
        <dc:type
           rdf:resource="http://purl.org/dc/dcmitype/StillImage" />
        <dc:title></dc:title>
      </cc:Work>
    </rdf:RDF>
  </metadata>
  <g
     inkscape:label="Layer 1"
     inkscape:groupmode="layer"
     id="layer1"
     transform="translate(81.788246,-188.44201)">
    <g
       id="g2834"
       transform="translate(4.2180348,-244.97944)"
       style="fill:#339900">
      <rect
         transform="matrix(0.70710678,0.70710678,-0.70710678,0.70710678,0,0)"
         y="128.81105"
         x="540.95331"
         height="228.57143"
         width="228.57143"
         id="rect2816"
         style="fill:#339900;fill-opacity:1;fill-rule:nonzero;stroke:none" />
      <path
         transform="translate(-81.952479,151.13084)"
         d="m 411.42857,400.93362 c 0,64.69622 -52.44665,117.14286 -117.14286,117.14286 -64.69622,0 -117.14286,-52.44664 -117.14286,-117.14286 0,-64.69621 52.44664,-117.14286 117.14286,-117.14286 64.69621,0 117.14286,52.44665 117.14286,117.14286 z"
         sodipodi:ry="117.14286"
         sodipodi:rx="117.14286"
         sodipodi:cy="400.93362"
         sodipodi:cx="294.28571"
         id="path2820"
         style="fill:#339900;fill-opacity:1;fill-rule:nonzero;stroke:none"
         sodipodi:type="arc" />
      <path
         sodipodi:type="arc"
         style="fill:#339900;fill-opacity:1;fill-rule:nonzero;stroke:none"
         id="path2822"
         sodipodi:cx="294.28571"
         sodipodi:cy="400.93362"
         sodipodi:rx="117.14286"
         sodipodi:ry="117.14286"
         d="m 411.42857,400.93362 c 0,64.69622 -52.44665,117.14286 -117.14286,117.14286 -64.69622,0 -117.14286,-52.44664 -117.14286,-117.14286 0,-64.69621 52.44664,-117.14286 117.14286,-117.14286 64.69621,0 117.14286,52.44665 117.14286,117.14286 z"
         transform="translate(77.738331,149.63069)" />
    </g>
    <g
       transform="matrix(1,0,0,-1,4.2180347,1378.2333)"
       id="g2839"
       style="fill:#339900">
      <rect
         style="fill:#339900;fill-opacity:1;fill-rule:nonzero;stroke:none"
         id="rect2841"
         width="228.57143"
         height="228.57143"
         x="540.95331"
         y="128.81105"
         transform="matrix(0.70710678,0.70710678,-0.70710678,0.70710678,0,0)" />
      <path
         sodipodi:type="arc"
         style="fill:#339900;fill-opacity:1;fill-rule:nonzero;stroke:none"
         id="path2843"
         sodipodi:cx="294.28571"
         sodipodi:cy="400.93362"
         sodipodi:rx="117.14286"
         sodipodi:ry="117.14286"
         d="m 411.42857,400.93362 c 0,64.69622 -52.44665,117.14286 -117.14286,117.14286 -64.69622,0 -117.14286,-52.44664 -117.14286,-117.14286 0,-64.69621 52.44664,-117.14286 117.14286,-117.14286 64.69621,0 117.14286,52.44665 117.14286,117.14286 z"
         transform="translate(-81.952479,151.13084)" />
      <path
         transform="translate(77.738331,149.63069)"
         d="m 411.42857,400.93362 c 0,64.69622 -52.44665,117.14286 -117.14286,117.14286 -64.69622,0 -117.14286,-52.44664 -117.14286,-117.14286 0,-64.69621 52.44664,-117.14286 117.14286,-117.14286 64.69621,0 117.14286,52.44665 117.14286,117.14286 z"
         sodipodi:ry="117.14286"
         sodipodi:rx="117.14286"
         sodipodi:cy="400.93362"
         sodipodi:cx="294.28571"
         id="path2845"
         style="fill:#339900;fill-opacity:1;fill-rule:nonzero;stroke:none"
         sodipodi:type="arc" />
    </g>
    <g
       transform="matrix(0,1,-1,0,1108.003,274.44829)"
       id="g2859"
       style="fill:#339900">
      <rect
         style="fill:#339900;fill-opacity:1;fill-rule:nonzero;stroke:none"
         id="rect2861"
         width="228.57143"
         height="228.57143"
         x="540.95331"
         y="128.81105"
         transform="matrix(0.70710678,0.70710678,-0.70710678,0.70710678,0,0)" />
      <path
         sodipodi:type="arc"
         style="fill:#339900;fill-opacity:1;fill-rule:nonzero;stroke:none"
         id="path2863"
         sodipodi:cx="294.28571"
         sodipodi:cy="400.93362"
         sodipodi:rx="117.14286"
         sodipodi:ry="117.14286"
         d="m 411.42857,400.93362 c 0,64.69622 -52.44665,117.14286 -117.14286,117.14286 -64.69622,0 -117.14286,-52.44664 -117.14286,-117.14286 0,-64.69621 52.44664,-117.14286 117.14286,-117.14286 64.69621,0 117.14286,52.44665 117.14286,117.14286 z"
         transform="translate(-81.952479,151.13084)" />
      <path
         transform="translate(77.738331,149.63069)"
         d="m 411.42857,400.93362 c 0,64.69622 -52.44665,117.14286 -117.14286,117.14286 -64.69622,0 -117.14286,-52.44664 -117.14286,-117.14286 0,-64.69621 52.44664,-117.14286 117.14286,-117.14286 64.69621,0 117.14286,52.44665 117.14286,117.14286 z"
         sodipodi:ry="117.14286"
         sodipodi:rx="117.14286"
         sodipodi:cy="400.93362"
         sodipodi:cx="294.28571"
         id="path2865"
         style="fill:#339900;fill-opacity:1;fill-rule:nonzero;stroke:none"
         sodipodi:type="arc" />
    </g>
    <g
       id="g2867"
       transform="matrix(0,1,1,0,-515.2097,274.44829)"
       style="fill:#339900">
      <rect
         transform="matrix(0.70710678,0.70710678,-0.70710678,0.70710678,0,0)"
         y="128.81105"
         x="540.95331"
         height="228.57143"
         width="228.57143"
         id="rect2869"
         style="fill:#339900;fill-opacity:1;fill-rule:nonzero;stroke:none" />
      <path
         transform="translate(-81.952479,151.13084)"
         d="m 411.42857,400.93362 c 0,64.69622 -52.44665,117.14286 -117.14286,117.14286 -64.69622,0 -117.14286,-52.44664 -117.14286,-117.14286 0,-64.69621 52.44664,-117.14286 117.14286,-117.14286 64.69621,0 117.14286,52.44665 117.14286,117.14286 z"
         sodipodi:ry="117.14286"
         sodipodi:rx="117.14286"
         sodipodi:cy="400.93362"
         sodipodi:cx="294.28571"
         id="path2871"
         style="fill:#339900;fill-opacity:1;fill-rule:nonzero;stroke:none"
         sodipodi:type="arc" />
      <path
         sodipodi:type="arc"
         style="fill:#339900;fill-opacity:1;fill-rule:nonzero;stroke:none"
         id="path2873"
         sodipodi:cx="294.28571"
         sodipodi:cy="400.93362"
         sodipodi:rx="117.14286"
         sodipodi:ry="117.14286"
         d="m 411.42857,400.93362 c 0,64.69622 -52.44665,117.14286 -117.14286,117.14286 -64.69622,0 -117.14286,-52.44664 -117.14286,-117.14286 0,-64.69621 52.44664,-117.14286 117.14286,-117.14286 64.69621,0 117.14286,52.44665 117.14286,117.14286 z"
         transform="translate(77.738331,149.63069)" />
    </g>
    <path
       style="fill:#ffff00;stroke-width:2.10894227"
       d="M 102.6966,572.78702 C 65.159015,568.94653 30.439353,544.11432 13.278344,508.83326 -6.0598025,469.07626 -1.6927855,423.23106 24.771288,388.17965 l 8.38506,-11.10593 -7.727783,-10.07165 C 10.31719,347.30736 3.1768431,324.66648 3.2967188,296.82557 3.5251784,243.76613 42.455834,195.5874 93.697677,184.94964 c 17.195363,-3.56975 49.306153,-1.54209 63.893363,4.03459 22.99918,8.79257 33.9767,18.34077 119.50138,103.94175 l 85.01802,85.09387 -84.8919,84.62576 c -46.83442,46.68761 -90.12886,88.05251 -96.5736,92.26953 -22.11522,14.47083 -49.59915,20.77228 -77.94834,17.87188 z"
       id="path3757"
       inkscape:connector-curvature="0"
       transform="translate(-81.788246,188.44201)" />
    <path
       style="fill:#ffff00;stroke-width:2.10894227"
       d="m 278.12186,752.10715 c -42.4296,-7.05817 -80.99133,-42.76874 -92.05625,-85.24984 -4.06086,-15.59069 -4.11627,-42.78765 -0.11779,-57.81266 8.06446,-30.30354 9.75289,-32.36497 104.2118,-127.23354 l 87.74196,-88.12248 84.61143,84.95907 c 47.0114,47.20454 88.06704,90.22524 92.38759,96.80955 35.31325,53.81565 18.60404,129.32329 -35.87427,162.11309 -20.04391,12.06416 -36.85771,16.77866 -60.06295,16.84125 -28.50855,0.077 -54.64893,-8.72687 -73.57385,-24.77885 l -7.28664,-6.18046 -13.08145,8.95589 c -15.3305,10.49568 -31.31874,16.88 -49.77169,19.87451 -15.18411,2.46404 -21.43804,2.43447 -37.12789,-0.17547 z"
       id="path3759"
       inkscape:connector-curvature="0"
       transform="translate(-81.788246,188.44201)" />
    <path
       style="fill:#ffff00;stroke-width:2.10894227"
       d="m 625.71428,572.78702 c -16.37146,-1.67499 -35.11758,-8.35338 -49.56014,-17.65605 -8.90634,-5.7367 -178.19815,-173.09747 -179.80755,-177.75655 -0.3011,-0.87167 38.60888,-40.52002 86.46663,-88.10743 93.33453,-92.80731 96.77244,-95.63338 125.27946,-102.98333 40.35185,-10.40389 81.69842,1.15929 111.64437,31.223 21.65426,21.73941 34.54947,51.73792 34.54947,80.37338 0,22.05579 -11.35191,54.60854 -24.90132,71.40705 l -6.56463,8.13878 7.08466,8.73276 c 16.28523,20.07368 24.45453,44.1264 24.45453,72.00103 0,32.74852 -10.59452,58.48206 -33.51246,81.39998 -25.81923,25.81925 -57.92771,37.03387 -95.13302,33.22738 z"
       id="path3761"
       inkscape:connector-curvature="0"
       transform="translate(-81.788246,188.44201)" />
    <path
       style="fill:#ffff00;stroke-width:2.10894227"
       d="M 290.25776,274.21714 C 218.67495,202.234 201.43615,183.78997 196.07755,173.45245 172.88534,128.71129 180.05168,75.952495 214.27708,39.467018 236.71314,15.549393 264.86625,3.4256683 298.15627,3.3456788 c 28.26138,-0.067906 47.87079,6.2996231 68.949,22.3889852 l 9.86217,7.527964 11.01778,-8.22578 c 22.0588,-16.4689165 43.1075,-23.479356 70.37256,-23.4381619 50.87228,0.076861 95.19814,33.0133659 110.65645,82.2237179 5.93225,18.884796 5.91223,48.662366 -0.0456,67.638266 -8.05742,25.66385 -16.97285,36.2146 -106.40297,125.91989 l -84.68703,84.94762 -87.62101,-88.11104 z"
       id="path3763"
       inkscape:connector-curvature="0"
       transform="translate(-81.788246,188.44201)" />
    <path
       style="fill:#ffff00;stroke-width:2.10894227"
       d=""
       id="path3765"
       inkscape:connector-curvature="0"
       transform="translate(-81.788246,188.44201)" />
    <path
       style="fill:#24221c;stroke-width:2.10894227"
       d="M 612.17299,569.30043 C 587.05288,563.21048 576.80024,555.907 531.64575,511.93678 508.33379,489.23621 468.60032,449.85152 443.34913,424.41525 l -45.91124,-46.2478 10.56078,-12.19046 c 18.84079,-21.74821 151.17379,-151.03347 165.82384,-162.00478 44.0182,-32.96491 110.22787,-24.68755 149.30896,18.66621 13.28254,14.7347 25.48621,39.89569 28.75772,59.29134 4.80831,28.50688 -4.7882,61.71122 -26.45735,91.54359 -2.97062,4.08972 -2.72012,5.01079 3.44145,12.65365 11.99044,14.87303 20.81744,36.42441 23.44507,57.24184 5.3255,42.1911 -10.91911,80.62919 -44.97022,106.40882 -26.93608,20.39294 -61.95555,27.57629 -95.17515,19.52277 z"
       id="path3769"
       inkscape:connector-curvature="0"
       transform="translate(-81.788246,188.44201)" />
    <path
       style="fill:#24221c;stroke-width:2.10894227"
       d="m 281.33338,751.73655 c -42.3205,-6.37034 -81.6551,-41.18319 -93.68886,-82.91874 -4.58021,-15.88508 -3.46327,-54.09665 2.04937,-70.11102 6.35607,-18.4646 22.82356,-37.27644 106.58477,-121.75842 l 81.22009,-81.919 84.62857,85.26525 c 46.5457,46.89589 88.00186,90.40261 92.1248,96.6816 40.0367,60.97366 10.49443,146.84717 -58.70948,170.65681 -34.39942,11.83513 -76.82729,5.45324 -105.29247,-15.83784 l -12.35639,-9.24219 -8.63944,5.92183 c -27.90355,19.12621 -59.62997,27.52024 -87.92096,23.26172 z"
       id="path3771"
       inkscape:connector-curvature="0"
       transform="translate(-81.788246,188.44201)" />
    <path
       style="fill:#24221c;stroke-width:2.10894227"
       d="M 91.724761,570.27364 C 65.668954,565.22262 34.081673,542.15214 19.425826,517.46851 6.4734802,495.65395 2.5196024,479.47718 3.6222998,452.81052 4.7149242,426.38743 9.0843581,412.96859 23.408284,392.04634 c 5.096352,-7.44398 9.266093,-14.28995 9.266093,-15.21324 0,-0.92331 -2.448589,-4.94744 -5.441309,-8.94252 C 19.352189,357.37013 10.491548,338.99619 7.5867478,327.15084 3.9633887,312.37531 4.4611744,280.60566 8.5326913,266.77886 17.731632,235.53943 39.779916,209.59775 69.751215,194.75008 l 18.501339,-9.16549 29.679586,0.14902 c 33.17339,0.16657 39.54934,1.76047 59.79371,14.94768 6.95922,4.53325 48.20915,43.80771 97.47689,92.80868 l 85.41216,84.94971 -39.01543,39.27812 c -21.45849,21.60297 -61.79201,61.17407 -89.63005,87.93577 -44.40278,42.68598 -52.4264,49.4959 -65.37721,55.48783 -23.06916,10.67333 -49.98277,13.95622 -74.867449,9.13224 z"
       id="path3773"
       inkscape:connector-curvature="0"
       transform="translate(-81.788246,188.44201)" />
    <path
       style="fill:#24221c;stroke-width:2.10894227"
       d="m 292.07428,274.36777 c -46.97669,-47.69203 -88.0349,-90.56987 -91.24047,-95.28408 -11.71149,-17.22328 -15.20392,-30.96268 -15.23387,-59.93079 -0.0314,-30.379665 2.61991,-40.527105 15.99624,-61.222887 15.82005,-24.476696 38.14234,-41.398871 65.02633,-49.2954279 7.19304,-2.11279 19.46821,-3.3645628 32.99369,-3.3645628 26.92611,0 43.30993,4.7067648 62.1254,17.8474637 7.49974,5.237811 14.33844,9.533531 15.19711,9.546041 0.85867,0.01244 7.65175,-4.146997 15.09574,-9.243349 19.68826,-13.4791097 34.45141,-18.4807337 58.21988,-19.7243674 11.7324,-0.613872 25.08003,-0.00337 32.1879,1.4722155 19.72312,4.0945042 40.92746,15.9600989 56.4346,31.5798529 24.57474,24.753213 35.10256,52.735525 32.98702,87.677381 -1.33325,22.02082 -5.5048,35.70717 -15.54461,50.99983 -9.5769,14.58759 -59.9473,67.90398 -125.37242,132.70503 l -53.46038,52.95045 z"
       id="path3775"
       inkscape:connector-curvature="0"
       transform="translate(-81.788246,188.44201)" />
  </g>
</svg>
